<mxfile host="drawio-plugin" modified="2021-09-08T20:31:00.255Z" agent="5.0 (X11; Linux x86_64) AppleWebKit/537.36 (KHTML, like Gecko) Chrome/87.0.4280.141 Safari/537.36" etag="LKaC5Hni0zEY0sijZJ75" version="14.7.4" type="embed"><diagram id="23iRSUPoRavnBvh4doch" name="Page-1"><mxGraphModel dx="961" dy="349" grid="1" gridSize="10" guides="1" tooltips="1" connect="1" arrows="1" fold="1" page="1" pageScale="1" pageWidth="827" pageHeight="1169" math="0" shadow="0"><root><mxCell id="0"/><mxCell id="1" parent="0"/><mxCell id="2" value="Exception&lt;br&gt;(chequeadas)" style="html=1;" vertex="1" parent="1"><mxGeometry x="520" y="180" width="110" height="50" as="geometry"/></mxCell><mxCell id="3" value="ArithmeticException&lt;br&gt;(chequeadas)" style="html=1;" vertex="1" parent="1"><mxGeometry x="300" y="390" width="110" height="50" as="geometry"/></mxCell><mxCell id="4" value="IOException&lt;br&gt;(chequeadas)" style="html=1;" vertex="1" parent="1"><mxGeometry x="610" y="290" width="110" height="50" as="geometry"/></mxCell><mxCell id="5" value="SQLException&lt;br&gt;(chequeadas)" style="html=1;" vertex="1" parent="1"><mxGeometry x="760" y="290" width="110" height="50" as="geometry"/></mxCell><mxCell id="6" value="Throwable" style="html=1;" vertex="1" parent="1"><mxGeometry x="320" y="50" width="110" height="50" as="geometry"/></mxCell><mxCell id="7" value="Error" style="html=1;" vertex="1" parent="1"><mxGeometry x="190" y="180" width="110" height="50" as="geometry"/></mxCell><mxCell id="8" value="Extends" style="endArrow=block;endSize=16;endFill=0;html=1;" edge="1" parent="1" source="7" target="6"><mxGeometry width="160" relative="1" as="geometry"><mxPoint x="90" y="130" as="sourcePoint"/><mxPoint x="250" y="130" as="targetPoint"/></mxGeometry></mxCell><mxCell id="9" value="Extends" style="endArrow=block;endSize=16;endFill=0;html=1;" edge="1" parent="1" source="2" target="6"><mxGeometry width="160" relative="1" as="geometry"><mxPoint x="280" y="190" as="sourcePoint"/><mxPoint x="360" y="110" as="targetPoint"/></mxGeometry></mxCell><mxCell id="10" value="Extends" style="endArrow=block;endSize=16;endFill=0;html=1;" edge="1" parent="1" source="5" target="2"><mxGeometry width="160" relative="1" as="geometry"><mxPoint x="620.5384615384617" y="190" as="sourcePoint"/><mxPoint x="497.46153846153857" y="110" as="targetPoint"/></mxGeometry></mxCell><mxCell id="11" value="Extends" style="endArrow=block;endSize=16;endFill=0;html=1;" edge="1" parent="1" source="4" target="2"><mxGeometry width="160" relative="1" as="geometry"><mxPoint x="770.4545454545455" y="300" as="sourcePoint"/><mxPoint x="639.5454545454545" y="240" as="targetPoint"/></mxGeometry></mxCell><mxCell id="12" value="Extends" style="endArrow=block;endSize=16;endFill=0;html=1;" edge="1" parent="1" source="3" target="13"><mxGeometry width="160" relative="1" as="geometry"><mxPoint x="780.4545454545455" y="310" as="sourcePoint"/><mxPoint x="649.5454545454545" y="250" as="targetPoint"/></mxGeometry></mxCell><mxCell id="13" value="RuntimeException&lt;br&gt;(no chequeadas)" style="html=1;" vertex="1" parent="1"><mxGeometry x="330" y="280" width="110" height="50" as="geometry"/></mxCell><mxCell id="14" value="Extends" style="endArrow=block;endSize=16;endFill=0;html=1;" edge="1" parent="1" source="13" target="2"><mxGeometry width="160" relative="1" as="geometry"><mxPoint x="180" y="330" as="sourcePoint"/><mxPoint x="340" y="330" as="targetPoint"/></mxGeometry></mxCell></root></mxGraphModel></diagram></mxfile>